<svg width="977" height="30" viewBox="0 0 977 30" fill="none" xmlns="http://www.w3.org/2000/svg">
<path d="M420.237 22.464V24H408.357V7.2H419.877V8.736H410.133V14.712H418.821V16.224H410.133V22.464H420.237ZM424.412 7.2H431.252C433.028 7.2 434.596 7.56 435.956 8.28C437.316 8.984 438.372 9.976 439.124 11.256C439.876 12.52 440.252 13.968 440.252 15.6C440.252 17.232 439.876 18.688 439.124 19.968C438.372 21.232 437.316 22.224 435.956 22.944C434.596 23.648 433.028 24 431.252 24H424.412V7.2ZM431.156 22.464C432.628 22.464 433.916 22.176 435.02 21.6C436.124 21.008 436.98 20.2 437.588 19.176C438.196 18.136 438.5 16.944 438.5 15.6C438.5 14.256 438.196 13.072 437.588 12.048C436.98 11.008 436.124 10.2 435.02 9.624C433.916 9.032 432.628 8.736 431.156 8.736H426.188V22.464H431.156ZM451.008 24.144C448.832 24.144 447.136 23.52 445.92 22.272C444.704 21.024 444.096 19.208 444.096 16.824V7.2H445.872V16.752C445.872 18.704 446.312 20.16 447.192 21.12C448.072 22.08 449.344 22.56 451.008 22.56C452.688 22.56 453.968 22.08 454.848 21.12C455.728 20.16 456.168 18.704 456.168 16.752V7.2H457.896V16.824C457.896 19.208 457.288 21.024 456.072 22.272C454.872 23.52 453.184 24.144 451.008 24.144ZM470.544 24.144C468.88 24.144 467.376 23.776 466.032 23.04C464.704 22.304 463.656 21.288 462.888 19.992C462.136 18.68 461.76 17.216 461.76 15.6C461.76 13.984 462.136 12.528 462.888 11.232C463.656 9.92 464.712 8.896 466.056 8.16C467.4 7.424 468.904 7.056 470.568 7.056C471.816 7.056 472.968 7.264 474.024 7.68C475.08 8.096 475.976 8.704 476.712 9.504L475.584 10.632C474.272 9.304 472.616 8.64 470.616 8.64C469.288 8.64 468.08 8.944 466.992 9.552C465.904 10.16 465.048 10.992 464.424 12.048C463.816 13.104 463.512 14.288 463.512 15.6C463.512 16.912 463.816 18.096 464.424 19.152C465.048 20.208 465.904 21.04 466.992 21.648C468.08 22.256 469.288 22.56 470.616 22.56C472.632 22.56 474.288 21.888 475.584 20.544L476.712 21.672C475.976 22.472 475.072 23.088 474 23.52C472.944 23.936 471.792 24.144 470.544 24.144ZM490.612 19.512H481.252L479.236 24H477.388L485.068 7.2H486.82L494.5 24H492.628L490.612 19.512ZM489.964 18.072L485.932 9.048L481.9 18.072H489.964ZM499.699 8.736H493.795V7.2H507.379V8.736H501.475V24H499.699V8.736ZM510.216 7.2H511.992V24H510.216V7.2ZM524.803 24.144C523.139 24.144 521.627 23.776 520.267 23.04C518.923 22.288 517.867 21.264 517.099 19.968C516.347 18.672 515.971 17.216 515.971 15.6C515.971 13.984 516.347 12.528 517.099 11.232C517.867 9.936 518.923 8.92 520.267 8.184C521.627 7.432 523.139 7.056 524.803 7.056C526.467 7.056 527.963 7.424 529.291 8.16C530.635 8.896 531.691 9.92 532.459 11.232C533.227 12.528 533.611 13.984 533.611 15.6C533.611 17.216 533.227 18.68 532.459 19.992C531.691 21.288 530.635 22.304 529.291 23.04C527.963 23.776 526.467 24.144 524.803 24.144ZM524.803 22.56C526.131 22.56 527.331 22.264 528.403 21.672C529.475 21.064 530.315 20.232 530.923 19.176C531.531 18.104 531.835 16.912 531.835 15.6C531.835 14.288 531.531 13.104 530.923 12.048C530.315 10.976 529.475 10.144 528.403 9.552C527.331 8.944 526.131 8.64 524.803 8.64C523.475 8.64 522.267 8.944 521.179 9.552C520.107 10.144 519.259 10.976 518.635 12.048C518.027 13.104 517.723 14.288 517.723 15.6C517.723 16.912 518.027 18.104 518.635 19.176C519.259 20.232 520.107 21.064 521.179 21.672C522.267 22.264 523.475 22.56 524.803 22.56ZM551.631 7.2V24H550.167L539.367 10.368V24H537.591V7.2H539.055L549.879 20.832V7.2H551.631Z" fill="black"/>
<line y1="14.75" x2="347" y2="14.75" stroke="black" stroke-width="0.5"/>
<line x1="630" y1="14.75" x2="977" y2="14.75" stroke="black" stroke-width="0.5"/>
</svg>
