<svg width="516" height="357" viewBox="0 0 516 357" fill="none" xmlns="http://www.w3.org/2000/svg">
<path d="M255.032 213.065C256.481 214.201 258.519 214.201 259.968 213.065L454.064 60.8979C457.055 58.5529 455.397 53.75 451.596 53.75H63.4044C59.6035 53.75 57.9452 58.5529 60.9364 60.8979L255.032 213.065Z" fill="black"/>
<path d="M302.41 197.428C304.224 196.003 306.776 196.003 308.59 197.428L448.722 307.569C452.455 310.503 450.381 316.5 445.633 316.5H165.367C160.619 316.5 158.545 310.503 162.278 307.569L302.41 197.428Z" fill="black"/>
<path d="M206.916 197.417C208.727 195.998 211.273 195.998 213.084 197.417L353.618 307.565C357.358 310.496 355.285 316.5 350.534 316.5H69.4661C64.7147 316.5 62.6421 310.496 66.3817 307.565L206.916 197.417Z" fill="black"/>
<path d="M315 185L465.75 65.4885L465.75 304.512L315 185Z" fill="black"/>
<path d="M201 185L50.25 65.4885L50.25 304.512L201 185Z" fill="black"/>
</svg>
