<svg width="976" height="30" viewBox="0 0 976 30" fill="none" xmlns="http://www.w3.org/2000/svg">
<path d="M423.854 22.464V24H411.974V7.2H423.494V8.736H413.75V14.712H422.438V16.224H413.75V22.464H423.854ZM438.354 24L432.93 16.608L427.53 24H425.49L431.874 15.36L425.898 7.2H427.938L433.002 14.064L438.042 7.2H439.962L434.01 15.312L440.418 24H438.354ZM449.27 7.2C451.414 7.2 453.094 7.712 454.31 8.736C455.526 9.76 456.134 11.168 456.134 12.96C456.134 14.752 455.526 16.16 454.31 17.184C453.094 18.192 451.414 18.696 449.27 18.696H444.758V24H442.982V7.2H449.27ZM449.222 17.136C450.886 17.136 452.158 16.776 453.038 16.056C453.918 15.32 454.358 14.288 454.358 12.96C454.358 11.6 453.918 10.56 453.038 9.84C452.158 9.104 450.886 8.736 449.222 8.736H444.758V17.136H449.222ZM471.854 22.464V24H459.974V7.2H471.494V8.736H461.75V14.712H470.438V16.224H461.75V22.464H471.854ZM487.501 24L483.661 18.6C483.229 18.648 482.781 18.672 482.317 18.672H477.805V24H476.029V7.2H482.317C484.461 7.2 486.141 7.712 487.357 8.736C488.573 9.76 489.181 11.168 489.181 12.96C489.181 14.272 488.845 15.384 488.173 16.296C487.517 17.192 486.573 17.84 485.341 18.24L489.445 24H487.501ZM482.269 17.16C483.933 17.16 485.205 16.792 486.085 16.056C486.965 15.32 487.405 14.288 487.405 12.96C487.405 11.6 486.965 10.56 486.085 9.84C485.205 9.104 483.933 8.736 482.269 8.736H477.805V17.16H482.269ZM493.373 7.2H495.149V24H493.373V7.2ZM512.495 22.464V24H500.615V7.2H512.135V8.736H502.391V14.712H511.079V16.224H502.391V22.464H512.495ZM530.71 7.2V24H529.246L518.446 10.368V24H516.67V7.2H518.134L528.958 20.832V7.2H530.71ZM543.489 24.144C541.825 24.144 540.321 23.776 538.977 23.04C537.649 22.304 536.601 21.288 535.833 19.992C535.081 18.68 534.705 17.216 534.705 15.6C534.705 13.984 535.081 12.528 535.833 11.232C536.601 9.92 537.657 8.896 539.001 8.16C540.345 7.424 541.849 7.056 543.513 7.056C544.761 7.056 545.913 7.264 546.969 7.68C548.025 8.096 548.921 8.704 549.657 9.504L548.529 10.632C547.217 9.304 545.561 8.64 543.561 8.64C542.233 8.64 541.025 8.944 539.937 9.552C538.849 10.16 537.993 10.992 537.369 12.048C536.761 13.104 536.457 14.288 536.457 15.6C536.457 16.912 536.761 18.096 537.369 19.152C537.993 20.208 538.849 21.04 539.937 21.648C541.025 22.256 542.233 22.56 543.561 22.56C545.577 22.56 547.233 21.888 548.529 20.544L549.657 21.672C548.921 22.472 548.017 23.088 546.945 23.52C545.889 23.936 544.737 24.144 543.489 24.144ZM565.323 22.464V24H553.443V7.2H564.963V8.736H555.219V14.712H563.907V16.224H555.219V22.464H565.323Z" fill="black"/>
<line y1="14.75" x2="347" y2="14.75" stroke="black" stroke-width="0.5"/>
<line x1="629" y1="14.75" x2="976" y2="14.75" stroke="black" stroke-width="0.5"/>
</svg>
