<svg width="479" height="141" viewBox="0 0 479 141" fill="none" xmlns="http://www.w3.org/2000/svg">
<path d="M32.1446 1.2V32H29.0206V7.36L16.9206 28.084H15.3806L3.28063 7.492V32H0.156625V1.2H2.84063L16.2166 24.036L29.4606 1.2H32.1446ZM55.6441 32.264C52.5934 32.264 49.8214 31.5893 47.3281 30.24C44.8641 28.8613 42.9281 26.984 41.5201 24.608C40.1414 22.232 39.4521 19.5627 39.4521 16.6C39.4521 13.6373 40.1414 10.968 41.5201 8.592C42.9281 6.216 44.8641 4.35333 47.3281 3.004C49.8214 1.62533 52.5934 0.935999 55.6441 0.935999C58.6947 0.935999 61.4374 1.61067 63.8721 2.96C66.3361 4.30933 68.2721 6.18667 69.6801 8.592C71.0881 10.968 71.7921 13.6373 71.7921 16.6C71.7921 19.5627 71.0881 22.2467 69.6801 24.652C68.2721 27.028 66.3361 28.8907 63.8721 30.24C61.4374 31.5893 58.6947 32.264 55.6441 32.264ZM55.6441 29.36C58.0787 29.36 60.2787 28.8173 62.2441 27.732C64.2094 26.6173 65.7494 25.092 66.8641 23.156C67.9787 21.1907 68.5361 19.0053 68.5361 16.6C68.5361 14.1947 67.9787 12.024 66.8641 10.088C65.7494 8.12267 64.2094 6.59733 62.2441 5.512C60.2787 4.39733 58.0787 3.84 55.6441 3.84C53.2094 3.84 50.9947 4.39733 49.0001 5.512C47.0347 6.59733 45.4801 8.12267 44.3361 10.088C43.2214 12.024 42.6641 14.1947 42.6641 16.6C42.6641 19.0053 43.2214 21.1907 44.3361 23.156C45.4801 25.092 47.0347 26.6173 49.0001 27.732C50.9947 28.8173 53.2094 29.36 55.6441 29.36ZM79.0902 1.2H91.6302C94.8862 1.2 97.7609 1.86 100.254 3.18C102.748 4.47067 104.684 6.28933 106.062 8.636C107.441 10.9533 108.13 13.608 108.13 16.6C108.13 19.592 107.441 22.2613 106.062 24.608C104.684 26.9253 102.748 28.744 100.254 30.064C97.7609 31.3547 94.8862 32 91.6302 32H79.0902V1.2ZM91.4542 29.184C94.1529 29.184 96.5142 28.656 98.5382 27.6C100.562 26.5147 102.132 25.0333 103.246 23.156C104.361 21.2493 104.918 19.064 104.918 16.6C104.918 14.136 104.361 11.9653 103.246 10.088C102.132 8.18133 100.562 6.7 98.5382 5.644C96.5142 4.55867 94.1529 4.016 91.4542 4.016H82.3462V29.184H91.4542ZM137.222 29.184V32H115.442V1.2H136.562V4.016H118.698V14.972H134.626V17.744H118.698V29.184H137.222ZM165.907 32L158.867 22.1C158.075 22.188 157.254 22.232 156.403 22.232H148.131V32H144.875V1.2H156.403C160.334 1.2 163.414 2.13866 165.643 4.016C167.873 5.89333 168.987 8.47467 168.987 11.76C168.987 14.1653 168.371 16.204 167.139 17.876C165.937 19.5187 164.206 20.7067 161.947 21.44L169.471 32H165.907ZM156.315 19.46C159.366 19.46 161.698 18.7853 163.311 17.436C164.925 16.0867 165.731 14.1947 165.731 11.76C165.731 9.26667 164.925 7.36 163.311 6.04C161.698 4.69067 159.366 4.016 156.315 4.016H148.131V19.46H156.315ZM202.412 1.2V32H199.728L179.928 7.008V32H176.672V1.2H179.356L199.2 26.192V1.2H202.412ZM232.473 32.264C230.185 32.264 227.985 31.8973 225.873 31.164C223.79 30.4307 222.177 29.4627 221.033 28.26L222.309 25.752C223.424 26.8667 224.905 27.776 226.753 28.48C228.601 29.1547 230.508 29.492 232.473 29.492C235.23 29.492 237.298 28.9933 238.677 27.996C240.056 26.9693 240.745 25.6493 240.745 24.036C240.745 22.804 240.364 21.8213 239.601 21.088C238.868 20.3547 237.958 19.7973 236.873 19.416C235.788 19.0053 234.277 18.5653 232.341 18.096C230.024 17.5093 228.176 16.952 226.797 16.424C225.418 15.8667 224.23 15.0307 223.233 13.916C222.265 12.8013 221.781 11.2907 221.781 9.384C221.781 7.82933 222.192 6.42133 223.013 5.16C223.834 3.86933 225.096 2.84267 226.797 2.08C228.498 1.31733 230.61 0.935999 233.133 0.935999C234.893 0.935999 236.609 1.18533 238.281 1.684C239.982 2.15333 241.449 2.81333 242.681 3.664L241.581 6.26C240.29 5.40933 238.912 4.77867 237.445 4.368C235.978 3.928 234.541 3.708 233.133 3.708C230.434 3.708 228.396 4.236 227.017 5.292C225.668 6.31867 224.993 7.65333 224.993 9.296C224.993 10.528 225.36 11.5253 226.093 12.288C226.856 13.0213 227.794 13.5933 228.909 14.004C230.053 14.3853 231.578 14.8107 233.485 15.28C235.744 15.8373 237.562 16.3947 238.941 16.952C240.349 17.48 241.537 18.3013 242.505 19.416C243.473 20.5013 243.957 21.9827 243.957 23.86C243.957 25.4147 243.532 26.8373 242.681 28.128C241.86 29.3893 240.584 30.4013 238.853 31.164C237.122 31.8973 234.996 32.264 232.473 32.264ZM264.515 32.264C261.464 32.264 258.692 31.5893 256.199 30.24C253.735 28.8613 251.799 26.984 250.391 24.608C249.012 22.232 248.323 19.5627 248.323 16.6C248.323 13.6373 249.012 10.968 250.391 8.592C251.799 6.216 253.735 4.35333 256.199 3.004C258.692 1.62533 261.464 0.935999 264.515 0.935999C267.566 0.935999 270.308 1.61067 272.743 2.96C275.207 4.30933 277.143 6.18667 278.551 8.592C279.959 10.968 280.663 13.6373 280.663 16.6C280.663 19.5627 279.959 22.2467 278.551 24.652C277.143 27.028 275.207 28.8907 272.743 30.24C270.308 31.5893 267.566 32.264 264.515 32.264ZM264.515 29.36C266.95 29.36 269.15 28.8173 271.115 27.732C273.08 26.6173 274.62 25.092 275.735 23.156C276.85 21.1907 277.407 19.0053 277.407 16.6C277.407 14.1947 276.85 12.024 275.735 10.088C274.62 8.12267 273.08 6.59733 271.115 5.512C269.15 4.39733 266.95 3.84 264.515 3.84C262.08 3.84 259.866 4.39733 257.871 5.512C255.906 6.59733 254.351 8.12267 253.207 10.088C252.092 12.024 251.535 14.1947 251.535 16.6C251.535 19.0053 252.092 21.1907 253.207 23.156C254.351 25.092 255.906 26.6173 257.871 27.732C259.866 28.8173 262.08 29.36 264.515 29.36ZM287.961 1.2H291.217V29.184H308.465V32H287.961V1.2ZM325.721 32.264C321.732 32.264 318.622 31.12 316.393 28.832C314.164 26.544 313.049 23.2147 313.049 18.844V1.2H316.305V18.712C316.305 22.2907 317.112 24.96 318.725 26.72C320.338 28.48 322.67 29.36 325.721 29.36C328.801 29.36 331.148 28.48 332.761 26.72C334.374 24.96 335.181 22.2907 335.181 18.712V1.2H338.349V18.844C338.349 23.2147 337.234 26.544 335.005 28.832C332.805 31.12 329.71 32.264 325.721 32.264ZM353.543 4.016H342.719V1.2H367.623V4.016H356.799V32H353.543V4.016ZM372.825 1.2H376.081V32H372.825V1.2ZM399.566 32.264C396.515 32.264 393.743 31.5893 391.25 30.24C388.786 28.8613 386.85 26.984 385.442 24.608C384.063 22.232 383.374 19.5627 383.374 16.6C383.374 13.6373 384.063 10.968 385.442 8.592C386.85 6.216 388.786 4.35333 391.25 3.004C393.743 1.62533 396.515 0.935999 399.566 0.935999C402.617 0.935999 405.359 1.61067 407.794 2.96C410.258 4.30933 412.194 6.18667 413.602 8.592C415.01 10.968 415.714 13.6373 415.714 16.6C415.714 19.5627 415.01 22.2467 413.602 24.652C412.194 27.028 410.258 28.8907 407.794 30.24C405.359 31.5893 402.617 32.264 399.566 32.264ZM399.566 29.36C402.001 29.36 404.201 28.8173 406.166 27.732C408.131 26.6173 409.671 25.092 410.786 23.156C411.901 21.1907 412.458 19.0053 412.458 16.6C412.458 14.1947 411.901 12.024 410.786 10.088C409.671 8.12267 408.131 6.59733 406.166 5.512C404.201 4.39733 402.001 3.84 399.566 3.84C397.131 3.84 394.917 4.39733 392.922 5.512C390.957 6.59733 389.402 8.12267 388.258 10.088C387.143 12.024 386.586 14.1947 386.586 16.6C386.586 19.0053 387.143 21.1907 388.258 23.156C389.402 25.092 390.957 26.6173 392.922 27.732C394.917 28.8173 397.131 29.36 399.566 29.36ZM448.752 1.2V32H446.068L426.268 7.008V32H423.012V1.2H425.696L445.54 26.192V1.2H448.752ZM467.297 32.264C465.009 32.264 462.809 31.8973 460.697 31.164C458.614 30.4307 457.001 29.4627 455.857 28.26L457.133 25.752C458.248 26.8667 459.729 27.776 461.577 28.48C463.425 29.1547 465.332 29.492 467.297 29.492C470.054 29.492 472.122 28.9933 473.501 27.996C474.88 26.9693 475.569 25.6493 475.569 24.036C475.569 22.804 475.188 21.8213 474.425 21.088C473.692 20.3547 472.782 19.7973 471.697 19.416C470.612 19.0053 469.101 18.5653 467.165 18.096C464.848 17.5093 463 16.952 461.621 16.424C460.242 15.8667 459.054 15.0307 458.057 13.916C457.089 12.8013 456.605 11.2907 456.605 9.384C456.605 7.82933 457.016 6.42133 457.837 5.16C458.658 3.86933 459.92 2.84267 461.621 2.08C463.322 1.31733 465.434 0.935999 467.957 0.935999C469.717 0.935999 471.433 1.18533 473.105 1.684C474.806 2.15333 476.273 2.81333 477.505 3.664L476.405 6.26C475.114 5.40933 473.736 4.77867 472.269 4.368C470.802 3.928 469.365 3.708 467.957 3.708C465.258 3.708 463.22 4.236 461.841 5.292C460.492 6.31867 459.817 7.65333 459.817 9.296C459.817 10.528 460.184 11.5253 460.917 12.288C461.68 13.0213 462.618 13.5933 463.733 14.004C464.877 14.3853 466.402 14.8107 468.309 15.28C470.568 15.8373 472.386 16.3947 473.765 16.952C475.173 17.48 476.361 18.3013 477.329 19.416C478.297 20.5013 478.781 21.9827 478.781 23.86C478.781 25.4147 478.356 26.8373 477.505 28.128C476.684 29.3893 475.408 30.4013 473.677 31.164C471.946 31.8973 469.82 32.264 467.297 32.264ZM198.19 58.016V70.116H214.118V72.932H198.19V86H194.934V55.2H216.054V58.016H198.19ZM235.855 86.264C232.804 86.264 230.032 85.5893 227.539 84.24C225.075 82.8613 223.139 80.984 221.731 78.608C220.352 76.232 219.663 73.5627 219.663 70.6C219.663 67.6373 220.352 64.968 221.731 62.592C223.139 60.216 225.075 58.3533 227.539 57.004C230.032 55.6253 232.804 54.936 235.855 54.936C238.906 54.936 241.648 55.6107 244.083 56.96C246.547 58.3093 248.483 60.1867 249.891 62.592C251.299 64.968 252.003 67.6373 252.003 70.6C252.003 73.5627 251.299 76.2467 249.891 78.652C248.483 81.028 246.547 82.8907 244.083 84.24C241.648 85.5893 238.906 86.264 235.855 86.264ZM235.855 83.36C238.29 83.36 240.49 82.8173 242.455 81.732C244.42 80.6173 245.96 79.092 247.075 77.156C248.19 75.1907 248.747 73.0053 248.747 70.6C248.747 68.1947 248.19 66.024 247.075 64.088C245.96 62.1227 244.42 60.5973 242.455 59.512C240.49 58.3973 238.29 57.84 235.855 57.84C233.42 57.84 231.206 58.3973 229.211 59.512C227.246 60.5973 225.691 62.1227 224.547 64.088C223.432 66.024 222.875 68.1947 222.875 70.6C222.875 73.0053 223.432 75.1907 224.547 77.156C225.691 79.092 227.246 80.6173 229.211 81.732C231.206 82.8173 233.42 83.36 235.855 83.36ZM280.333 86L273.293 76.1C272.501 76.188 271.68 76.232 270.829 76.232H262.557V86H259.301V55.2H270.829C274.76 55.2 277.84 56.1387 280.069 58.016C282.298 59.8933 283.413 62.4747 283.413 65.76C283.413 68.1653 282.797 70.204 281.565 71.876C280.362 73.5187 278.632 74.7067 276.373 75.44L283.897 86H280.333ZM270.741 73.46C273.792 73.46 276.124 72.7853 277.737 71.436C279.35 70.0867 280.157 68.1947 280.157 65.76C280.157 63.2667 279.35 61.36 277.737 60.04C276.124 58.6907 273.792 58.016 270.741 58.016H262.557V73.46H270.741ZM34.3575 109.2V140H31.2335V115.36L19.1335 136.084H17.5935L5.49352 115.492V140H2.36952V109.2H5.05352L18.4295 132.036L31.6735 109.2H34.3575ZM57.857 140.264C54.8063 140.264 52.0343 139.589 49.541 138.24C47.077 136.861 45.141 134.984 43.733 132.608C42.3543 130.232 41.665 127.563 41.665 124.6C41.665 121.637 42.3543 118.968 43.733 116.592C45.141 114.216 47.077 112.353 49.541 111.004C52.0343 109.625 54.8063 108.936 57.857 108.936C60.9076 108.936 63.6503 109.611 66.085 110.96C68.549 112.309 70.485 114.187 71.893 116.592C73.301 118.968 74.005 121.637 74.005 124.6C74.005 127.563 73.301 130.247 71.893 132.652C70.485 135.028 68.549 136.891 66.085 138.24C63.6503 139.589 60.9076 140.264 57.857 140.264ZM57.857 137.36C60.2916 137.36 62.4916 136.817 64.457 135.732C66.4223 134.617 67.9623 133.092 69.077 131.156C70.1916 129.191 70.749 127.005 70.749 124.6C70.749 122.195 70.1916 120.024 69.077 118.088C67.9623 116.123 66.4223 114.597 64.457 113.512C62.4916 112.397 60.2916 111.84 57.857 111.84C55.4223 111.84 53.2076 112.397 51.213 113.512C49.2476 114.597 47.693 116.123 46.549 118.088C45.4343 120.024 44.877 122.195 44.877 124.6C44.877 127.005 45.4343 129.191 46.549 131.156C47.693 133.092 49.2476 134.617 51.213 135.732C53.2076 136.817 55.4223 137.36 57.857 137.36ZM81.3031 109.2H93.8431C97.0991 109.2 99.9738 109.86 102.467 111.18C104.96 112.471 106.896 114.289 108.275 116.636C109.654 118.953 110.343 121.608 110.343 124.6C110.343 127.592 109.654 130.261 108.275 132.608C106.896 134.925 104.96 136.744 102.467 138.064C99.9738 139.355 97.0991 140 93.8431 140H81.3031V109.2ZM93.6671 137.184C96.3658 137.184 98.7271 136.656 100.751 135.6C102.775 134.515 104.344 133.033 105.459 131.156C106.574 129.249 107.131 127.064 107.131 124.6C107.131 122.136 106.574 119.965 105.459 118.088C104.344 116.181 102.775 114.7 100.751 113.644C98.7271 112.559 96.3658 112.016 93.6671 112.016H84.5591V137.184H93.6671ZM139.435 137.184V140H117.655V109.2H138.775V112.016H120.911V122.972H136.839V125.744H120.911V137.184H139.435ZM168.12 140L161.08 130.1C160.288 130.188 159.467 130.232 158.616 130.232H150.344V140H147.088V109.2H158.616C162.547 109.2 165.627 110.139 167.856 112.016C170.086 113.893 171.2 116.475 171.2 119.76C171.2 122.165 170.584 124.204 169.352 125.876C168.15 127.519 166.419 128.707 164.16 129.44L171.684 140H168.12ZM158.528 127.46C161.579 127.46 163.911 126.785 165.524 125.436C167.138 124.087 167.944 122.195 167.944 119.76C167.944 117.267 167.138 115.36 165.524 114.04C163.911 112.691 161.579 112.016 158.528 112.016H150.344V127.46H158.528ZM204.625 109.2V140H201.941L182.141 115.008V140H178.885V109.2H181.569L201.413 134.192V109.2H204.625ZM237.722 109.2C241.652 109.2 244.732 110.139 246.962 112.016C249.191 113.893 250.306 116.475 250.306 119.76C250.306 123.045 249.191 125.627 246.962 127.504C244.732 129.352 241.652 130.276 237.722 130.276H229.45V140H226.194V109.2H237.722ZM237.634 127.416C240.684 127.416 243.016 126.756 244.63 125.436C246.243 124.087 247.05 122.195 247.05 119.76C247.05 117.267 246.243 115.36 244.63 114.04C243.016 112.691 240.684 112.016 237.634 112.016H229.45V127.416H237.634ZM278.378 140L271.338 130.1C270.546 130.188 269.725 130.232 268.874 130.232H260.602V140H257.346V109.2H268.874C272.805 109.2 275.885 110.139 278.114 112.016C280.343 113.893 281.458 116.475 281.458 119.76C281.458 122.165 280.842 124.204 279.61 125.876C278.407 127.519 276.677 128.707 274.418 129.44L281.942 140H278.378ZM268.786 127.46C271.837 127.46 274.169 126.785 275.782 125.436C277.395 124.087 278.202 122.195 278.202 119.76C278.202 117.267 277.395 115.36 275.782 114.04C274.169 112.691 271.837 112.016 268.786 112.016H260.602V127.46H268.786ZM302.607 140.264C299.556 140.264 296.784 139.589 294.291 138.24C291.827 136.861 289.891 134.984 288.483 132.608C287.104 130.232 286.415 127.563 286.415 124.6C286.415 121.637 287.104 118.968 288.483 116.592C289.891 114.216 291.827 112.353 294.291 111.004C296.784 109.625 299.556 108.936 302.607 108.936C305.658 108.936 308.4 109.611 310.835 110.96C313.299 112.309 315.235 114.187 316.643 116.592C318.051 118.968 318.755 121.637 318.755 124.6C318.755 127.563 318.051 130.247 316.643 132.652C315.235 135.028 313.299 136.891 310.835 138.24C308.4 139.589 305.658 140.264 302.607 140.264ZM302.607 137.36C305.042 137.36 307.242 136.817 309.207 135.732C311.172 134.617 312.712 133.092 313.827 131.156C314.942 129.191 315.499 127.005 315.499 124.6C315.499 122.195 314.942 120.024 313.827 118.088C312.712 116.123 311.172 114.597 309.207 113.512C307.242 112.397 305.042 111.84 302.607 111.84C300.172 111.84 297.958 112.397 295.963 113.512C293.998 114.597 292.443 116.123 291.299 118.088C290.184 120.024 289.627 122.195 289.627 124.6C289.627 127.005 290.184 129.191 291.299 131.156C292.443 133.092 293.998 134.617 295.963 135.732C297.958 136.817 300.172 137.36 302.607 137.36ZM345.457 124.116C347.481 124.556 349.036 125.436 350.121 126.756C351.236 128.047 351.793 129.719 351.793 131.772C351.793 134.412 350.81 136.451 348.845 137.888C346.909 139.296 344.034 140 340.221 140H326.053V109.2H339.341C342.773 109.2 345.428 109.889 347.305 111.268C349.212 112.647 350.165 114.597 350.165 117.12C350.165 118.821 349.74 120.273 348.889 121.476C348.068 122.649 346.924 123.529 345.457 124.116ZM329.309 111.884V123.06H339.121C341.614 123.06 343.536 122.591 344.885 121.652C346.234 120.684 346.909 119.291 346.909 117.472C346.909 115.653 346.234 114.275 344.885 113.336C343.536 112.368 341.614 111.884 339.121 111.884H329.309ZM340.177 137.316C342.934 137.316 345.017 136.847 346.425 135.908C347.833 134.969 348.537 133.503 348.537 131.508C348.537 127.665 345.75 125.744 340.177 125.744H329.309V137.316H340.177ZM359.225 109.2H362.481V137.184H379.729V140H359.225V109.2ZM406.915 137.184V140H385.135V109.2H406.255V112.016H388.391V122.972H404.319V125.744H388.391V137.184H406.915ZM446.557 109.2V140H443.433V115.36L431.333 136.084H429.793L417.693 115.492V140H414.569V109.2H417.253L430.629 132.036L443.873 109.2H446.557ZM465.084 140.264C462.796 140.264 460.596 139.897 458.484 139.164C456.402 138.431 454.788 137.463 453.644 136.26L454.92 133.752C456.035 134.867 457.516 135.776 459.364 136.48C461.212 137.155 463.119 137.492 465.084 137.492C467.842 137.492 469.91 136.993 471.288 135.996C472.667 134.969 473.356 133.649 473.356 132.036C473.356 130.804 472.975 129.821 472.212 129.088C471.479 128.355 470.57 127.797 469.484 127.416C468.399 127.005 466.888 126.565 464.952 126.096C462.635 125.509 460.787 124.952 459.408 124.424C458.03 123.867 456.842 123.031 455.844 121.916C454.876 120.801 454.392 119.291 454.392 117.384C454.392 115.829 454.803 114.421 455.624 113.16C456.446 111.869 457.707 110.843 459.408 110.08C461.11 109.317 463.222 108.936 465.744 108.936C467.504 108.936 469.22 109.185 470.892 109.684C472.594 110.153 474.06 110.813 475.292 111.664L474.192 114.26C472.902 113.409 471.523 112.779 470.056 112.368C468.59 111.928 467.152 111.708 465.744 111.708C463.046 111.708 461.007 112.236 459.628 113.292C458.279 114.319 457.604 115.653 457.604 117.296C457.604 118.528 457.971 119.525 458.704 120.288C459.467 121.021 460.406 121.593 461.52 122.004C462.664 122.385 464.19 122.811 466.096 123.28C468.355 123.837 470.174 124.395 471.552 124.952C472.96 125.48 474.148 126.301 475.116 127.416C476.084 128.501 476.568 129.983 476.568 131.86C476.568 133.415 476.143 134.837 475.292 136.128C474.471 137.389 473.195 138.401 471.464 139.164C469.734 139.897 467.607 140.264 465.084 140.264Z" fill="black"/>
</svg>
