<svg width="822" height="29" viewBox="0 0 822 29" fill="none" xmlns="http://www.w3.org/2000/svg">
<path d="M342.392 23L338.552 17.6C338.12 17.648 337.672 17.672 337.208 17.672H332.696V23H330.92V6.2H337.208C339.352 6.2 341.032 6.712 342.248 7.736C343.464 8.76 344.072 10.168 344.072 11.96C344.072 13.272 343.736 14.384 343.064 15.296C342.408 16.192 341.464 16.84 340.232 17.24L344.336 23H342.392ZM337.16 16.16C338.824 16.16 340.096 15.792 340.976 15.056C341.856 14.32 342.296 13.288 342.296 11.96C342.296 10.6 341.856 9.56 340.976 8.84C340.096 8.104 338.824 7.736 337.16 7.736H332.696V16.16H337.16ZM360.143 21.464V23H348.263V6.2H359.783V7.736H350.039V13.712H358.727V15.224H350.039V21.464H360.143ZM366.094 7.736V14.336H374.782V15.872H366.094V23H364.318V6.2H375.838V7.736H366.094ZM391.386 21.464V23H379.506V6.2H391.026V7.736H381.282V13.712H389.97V15.224H381.282V21.464H391.386ZM407.032 23L403.192 17.6C402.76 17.648 402.312 17.672 401.848 17.672H397.336V23H395.56V6.2H401.848C403.992 6.2 405.672 6.712 406.888 7.736C408.104 8.76 408.712 10.168 408.712 11.96C408.712 13.272 408.376 14.384 407.704 15.296C407.048 16.192 406.104 16.84 404.872 17.24L408.976 23H407.032ZM401.8 16.16C403.464 16.16 404.736 15.792 405.616 15.056C406.496 14.32 406.936 13.288 406.936 11.96C406.936 10.6 406.496 9.56 405.616 8.84C404.736 8.104 403.464 7.736 401.8 7.736H397.336V16.16H401.8ZM424.784 21.464V23H412.904V6.2H424.424V7.736H414.68V13.712H423.368V15.224H414.68V21.464H424.784ZM442.999 6.2V23H441.535L430.735 9.368V23H428.959V6.2H430.423L441.247 19.832V6.2H442.999ZM455.778 23.144C454.114 23.144 452.61 22.776 451.266 22.04C449.938 21.304 448.89 20.288 448.122 18.992C447.37 17.68 446.994 16.216 446.994 14.6C446.994 12.984 447.37 11.528 448.122 10.232C448.89 8.92 449.946 7.896 451.29 7.16C452.634 6.424 454.138 6.056 455.802 6.056C457.05 6.056 458.202 6.264 459.258 6.68C460.314 7.096 461.21 7.704 461.946 8.504L460.818 9.632C459.506 8.304 457.85 7.64 455.85 7.64C454.522 7.64 453.314 7.944 452.226 8.552C451.138 9.16 450.282 9.992 449.658 11.048C449.05 12.104 448.746 13.288 448.746 14.6C448.746 15.912 449.05 17.096 449.658 18.152C450.282 19.208 451.138 20.04 452.226 20.648C453.314 21.256 454.522 21.56 455.85 21.56C457.866 21.56 459.522 20.888 460.818 19.544L461.946 20.672C461.21 21.472 460.306 22.088 459.234 22.52C458.178 22.936 457.026 23.144 455.778 23.144ZM477.612 21.464V23H465.732V6.2H477.252V7.736H467.508V13.712H476.196V15.224H467.508V21.464H477.612ZM486.419 23.144C485.171 23.144 483.971 22.944 482.819 22.544C481.683 22.144 480.803 21.616 480.179 20.96L480.875 19.592C481.483 20.2 482.291 20.696 483.299 21.08C484.307 21.448 485.347 21.632 486.419 21.632C487.923 21.632 489.051 21.36 489.803 20.816C490.555 20.256 490.931 19.536 490.931 18.656C490.931 17.984 490.723 17.448 490.307 17.048C489.907 16.648 489.411 16.344 488.819 16.136C488.227 15.912 487.403 15.672 486.347 15.416C485.083 15.096 484.075 14.792 483.323 14.504C482.571 14.2 481.923 13.744 481.379 13.136C480.851 12.528 480.587 11.704 480.587 10.664C480.587 9.816 480.811 9.048 481.259 8.36C481.707 7.656 482.395 7.096 483.323 6.68C484.251 6.264 485.403 6.056 486.779 6.056C487.739 6.056 488.675 6.192 489.587 6.464C490.515 6.72 491.315 7.08 491.987 7.544L491.387 8.96C490.683 8.496 489.931 8.152 489.131 7.928C488.331 7.688 487.547 7.568 486.779 7.568C485.307 7.568 484.195 7.856 483.443 8.432C482.707 8.992 482.339 9.72 482.339 10.616C482.339 11.288 482.539 11.832 482.939 12.248C483.355 12.648 483.867 12.96 484.475 13.184C485.099 13.392 485.931 13.624 486.971 13.88C488.203 14.184 489.195 14.488 489.947 14.792C490.715 15.08 491.363 15.528 491.891 16.136C492.419 16.728 492.683 17.536 492.683 18.56C492.683 19.408 492.451 20.184 491.987 20.888C491.539 21.576 490.843 22.128 489.899 22.544C488.955 22.944 487.795 23.144 486.419 23.144Z" fill="black"/>
<path d="M0.646447 13.6465C0.451184 13.8417 0.451184 14.1583 0.646447 14.3536L3.82843 17.5356C4.02369 17.7308 4.34027 17.7308 4.53553 17.5356C4.7308 17.3403 4.7308 17.0237 4.53553 16.8284L1.70711 14L4.53553 11.1716C4.7308 10.9763 4.7308 10.6598 4.53553 10.4645C4.34027 10.2692 4.02369 10.2692 3.82843 10.4645L0.646447 13.6465ZM256 13.5L1 13.5L1 14.5L256 14.5L256 13.5Z" fill="black"/>
<path d="M821.354 13.6465C821.549 13.8417 821.549 14.1583 821.354 14.3536L818.172 17.5356C817.976 17.7308 817.66 17.7308 817.464 17.5356C817.269 17.3403 817.269 17.0237 817.464 16.8284L820.293 14L817.464 11.1716C817.269 10.9763 817.269 10.6598 817.464 10.4645C817.66 10.2692 817.976 10.2692 818.172 10.4645L821.354 13.6465ZM566 13.5L821 13.5L821 14.5L566 14.5L566 13.5Z" fill="black"/>
</svg>
