<svg width="822" height="29" viewBox="0 0 822 29" fill="none" xmlns="http://www.w3.org/2000/svg">
<path d="M377.411 23.144C376.163 23.144 374.963 22.944 373.811 22.544C372.675 22.144 371.795 21.616 371.171 20.96L371.867 19.592C372.475 20.2 373.283 20.696 374.291 21.08C375.299 21.448 376.339 21.632 377.411 21.632C378.915 21.632 380.043 21.36 380.795 20.816C381.547 20.256 381.923 19.536 381.923 18.656C381.923 17.984 381.715 17.448 381.299 17.048C380.899 16.648 380.403 16.344 379.811 16.136C379.219 15.912 378.395 15.672 377.339 15.416C376.075 15.096 375.067 14.792 374.315 14.504C373.563 14.2 372.915 13.744 372.371 13.136C371.843 12.528 371.579 11.704 371.579 10.664C371.579 9.816 371.803 9.048 372.251 8.36C372.699 7.656 373.387 7.096 374.315 6.68C375.243 6.264 376.395 6.056 377.771 6.056C378.731 6.056 379.667 6.192 380.579 6.464C381.507 6.72 382.307 7.08 382.979 7.544L382.379 8.96C381.675 8.496 380.923 8.152 380.123 7.928C379.323 7.688 378.539 7.568 377.771 7.568C376.299 7.568 375.187 7.856 374.435 8.432C373.699 8.992 373.331 9.72 373.331 10.616C373.331 11.288 373.531 11.832 373.931 12.248C374.347 12.648 374.859 12.96 375.467 13.184C376.091 13.392 376.923 13.624 377.963 13.88C379.195 14.184 380.187 14.488 380.939 14.792C381.707 15.08 382.355 15.528 382.883 16.136C383.411 16.728 383.675 17.536 383.675 18.56C383.675 19.408 383.443 20.184 382.979 20.888C382.531 21.576 381.835 22.128 380.891 22.544C379.947 22.944 378.787 23.144 377.411 23.144ZM392.753 15.104L389.321 18.584V23H387.545V6.2H389.321V16.352L399.185 6.2H401.225L393.953 13.808L401.729 23H399.617L392.753 15.104ZM404.607 6.2H406.383V23H404.607V6.2ZM411.849 6.2H413.625V21.464H423.033V23H411.849V6.2ZM425.982 6.2H427.758V21.464H437.166V23H425.982V6.2ZM444.559 23.144C443.311 23.144 442.111 22.944 440.959 22.544C439.823 22.144 438.943 21.616 438.319 20.96L439.015 19.592C439.623 20.2 440.431 20.696 441.439 21.08C442.447 21.448 443.487 21.632 444.559 21.632C446.063 21.632 447.191 21.36 447.943 20.816C448.695 20.256 449.071 19.536 449.071 18.656C449.071 17.984 448.863 17.448 448.447 17.048C448.047 16.648 447.551 16.344 446.959 16.136C446.367 15.912 445.543 15.672 444.487 15.416C443.223 15.096 442.215 14.792 441.463 14.504C440.711 14.2 440.063 13.744 439.519 13.136C438.991 12.528 438.727 11.704 438.727 10.664C438.727 9.816 438.951 9.048 439.399 8.36C439.847 7.656 440.535 7.096 441.463 6.68C442.391 6.264 443.543 6.056 444.919 6.056C445.879 6.056 446.815 6.192 447.727 6.464C448.655 6.72 449.455 7.08 450.127 7.544L449.527 8.96C448.823 8.496 448.071 8.152 447.271 7.928C446.471 7.688 445.687 7.568 444.919 7.568C443.447 7.568 442.335 7.856 441.583 8.432C440.847 8.992 440.479 9.72 440.479 10.616C440.479 11.288 440.679 11.832 441.079 12.248C441.495 12.648 442.007 12.96 442.615 13.184C443.239 13.392 444.071 13.624 445.111 13.88C446.343 14.184 447.335 14.488 448.087 14.792C448.855 15.08 449.503 15.528 450.031 16.136C450.559 16.728 450.823 17.536 450.823 18.56C450.823 19.408 450.591 20.184 450.127 20.888C449.679 21.576 448.983 22.128 448.039 22.544C447.095 22.944 445.935 23.144 444.559 23.144Z" fill="black"/>
<path d="M0.646447 13.6465C0.451184 13.8417 0.451184 14.1583 0.646447 14.3536L3.82843 17.5356C4.02369 17.7308 4.34027 17.7308 4.53553 17.5356C4.7308 17.3403 4.7308 17.0237 4.53553 16.8284L1.70711 14L4.53553 11.1716C4.7308 10.9763 4.7308 10.6598 4.53553 10.4645C4.34027 10.2692 4.02369 10.2692 3.82843 10.4645L0.646447 13.6465ZM256 13.5L1 13.5L1 14.5L256 14.5L256 13.5Z" fill="black"/>
<path d="M821.354 13.6465C821.549 13.8417 821.549 14.1583 821.354 14.3536L818.172 17.5356C817.976 17.7308 817.66 17.7308 817.464 17.5356C817.269 17.3403 817.269 17.0237 817.464 16.8284L820.293 14L817.464 11.1716C817.269 10.9763 817.269 10.6598 817.464 10.4645C817.66 10.2692 817.976 10.2692 818.172 10.4645L821.354 13.6465ZM566 13.5L821 13.5L821 14.5L566 14.5L566 13.5Z" fill="black"/>
</svg>
