<svg width="60" height="60" viewBox="0 0 60 60" fill="none" xmlns="http://www.w3.org/2000/svg">
<g clip-path="url(#clip0)">
<path d="M57.4551 19.687C55.7583 17.9907 53.7492 17.1424 51.428 17.1424H38.9058C39.3971 15.8033 39.6427 14.3747 39.6427 12.8567C39.6427 10.1338 38.7329 8.02467 36.9136 6.52875C35.094 5.03342 32.7896 4.28581 29.9996 4.28581C29.1515 4.28581 28.3755 4.48107 27.6723 4.87194C26.9692 5.26222 26.3553 5.81504 25.8308 6.52875C25.3065 7.24306 24.8544 7.94622 24.4751 8.63836C24.0953 9.33038 23.6823 10.1338 23.2361 11.0489C22.7897 11.9645 22.4216 12.6562 22.1315 13.1252C21.3503 14.353 20.234 15.7922 18.7835 17.4442C18.7387 17.5112 18.5823 17.701 18.3145 18.0134C18.0466 18.3261 17.8345 18.566 17.6784 18.7334C17.5223 18.9007 17.2938 19.1408 16.9921 19.4533C16.6903 19.7659 16.4224 20.0168 16.1884 20.2066C15.9539 20.3965 15.703 20.5972 15.435 20.8094C15.1671 21.0216 14.9048 21.1777 14.6481 21.2784C14.3916 21.3787 14.1517 21.4289 13.9285 21.4289H4.28594C3.10267 21.4289 2.09249 21.8481 1.25551 22.6848C0.418779 23.5212 0 24.5314 0 25.7144V47.1429C0 48.326 0.41831 49.336 1.25551 50.1733C2.09295 51.0101 3.10255 51.429 4.28594 51.429H13.9285C15.2453 51.429 17.7339 52.088 21.3948 53.4048C25.6133 54.945 29.207 55.7144 32.1758 55.7144C35.3229 55.7144 37.8565 54.8158 39.7761 53.0191C41.6956 51.2228 42.6447 48.7731 42.6219 45.6697C43.962 43.9508 44.6314 41.9642 44.6314 39.71C44.6314 39.2192 44.5976 38.7394 44.5311 38.2706C45.268 36.9983 45.6809 35.67 45.7704 34.2862H51.429C53.7728 34.2862 55.7874 33.4382 57.4729 31.7419C59.1577 30.0456 60.0001 28.0257 60.0001 25.6823C59.9994 23.3827 59.1511 21.3848 57.4551 19.687ZM7.93521 46.5072C7.51092 46.9314 7.00888 47.1433 6.42862 47.1433C5.84789 47.1433 5.34561 46.9314 4.92167 46.5072C4.49738 46.083 4.28559 45.581 4.28559 45.0006C4.28559 44.4202 4.4975 43.9179 4.92167 43.4939C5.34608 43.0697 5.84789 42.8575 6.42862 42.8575C7.00888 42.8575 7.51092 43.0697 7.93521 43.4939C8.35927 43.9177 8.5713 44.4201 8.5713 45.0006C8.5713 45.581 8.35915 46.083 7.93521 46.5072ZM54.4412 28.7297C53.5936 29.578 52.5878 30.0019 51.4272 30.0019H40.3451C40.6798 30.3812 40.9587 30.9117 41.1818 31.5923C41.4054 32.273 41.517 32.8927 41.517 33.4505C41.517 34.9909 40.9254 36.3184 39.7423 37.4341C40.1445 38.1484 40.3451 38.919 40.3451 39.7445C40.3451 40.5704 40.1496 41.3906 39.7592 42.2053C39.3684 43.0196 38.8382 43.6056 38.1684 43.9628C38.2799 44.6313 38.3361 45.257 38.3361 45.8377C38.3361 49.5643 36.2269 51.4281 32.0081 51.4281C30.1999 51.4281 28.1965 51.071 25.998 50.3574C23.7994 49.6434 21.6399 48.9286 19.5192 48.2143C17.3986 47.5005 15.535 47.1433 13.9277 47.1433H12.8564V25.7154H13.9277C15.5124 25.7154 17.0747 25.0791 18.6149 23.8063C19.2849 23.2479 20.4121 22.0647 21.9967 20.257C23.6041 18.4492 24.8542 16.8313 25.7467 15.4024C26.0369 14.9334 26.4499 14.208 26.9858 13.2259C28.459 10.1231 29.4634 8.5721 29.9994 8.5721C31.5842 8.5721 32.8732 8.91242 33.8665 9.59295C34.8598 10.274 35.3562 11.3618 35.3562 12.8572C35.3562 13.8172 35.1889 14.7603 34.8542 15.6865C34.5192 16.6127 34.1512 17.3719 33.7494 17.9632C33.3476 18.5545 32.9793 19.1686 32.6444 19.8048C32.3097 20.4408 32.1425 20.9823 32.1425 21.4285H51.4281C52.5438 21.4285 53.5374 21.8583 54.4083 22.7176C55.2784 23.5774 55.7134 24.5755 55.7134 25.7142C55.7134 26.8759 55.2896 27.8802 54.4412 28.7297Z" fill="black"/>
</g>
<defs>
<clipPath id="clip0">
<rect width="60" height="60" fill="white"/>
</clipPath>
</defs>
</svg>
